<svg width="47" height="22" viewBox="0 0 47 22" fill="none" xmlns="http://www.w3.org/2000/svg">
<mask id="path-1-inside-1" fill="white">
<path fill-rule="evenodd" clip-rule="evenodd" d="M11 0.5C11.1676 0.5 11.3343 0.503927 11.5 0.511695L11.5 0.5L36 0.499998L36.5 0.499998L36.5 0.511694C42.0668 0.772671 46.5 5.36862 46.5 11C46.5 16.6314 42.0668 21.2273 36.5 21.4883L36.5 21.5L36 21.5L11.5 21.5L11.5 21.4883C11.3343 21.4961 11.1676 21.5 11 21.5C5.20101 21.5 0.5 16.799 0.5 11C0.499999 5.20101 5.20101 0.5 11 0.5Z"/>
</mask>
<path d="M11.5 0.511695L11.4532 1.5106L12.5 1.55968L12.5 0.511695L11.5 0.511695ZM11.5 0.5L11.5 -0.5L10.5 -0.5L10.5 0.5L11.5 0.5ZM36.5 0.499998L37.5 0.499998L37.5 -0.500002L36.5 -0.500002L36.5 0.499998ZM36.5 0.511694L35.5 0.511694L35.5 1.46591L36.4532 1.5106L36.5 0.511694ZM36.5 21.4883L36.4532 20.4894L35.5 20.5341L35.5 21.4883L36.5 21.4883ZM36.5 21.5L36.5 22.5L37.5 22.5L37.5 21.5L36.5 21.5ZM11.5 21.5L10.5 21.5L10.5 22.5L11.5 22.5L11.5 21.5ZM11.5 21.4883L12.5 21.4883L12.5 20.4403L11.4532 20.4894L11.5 21.4883ZM11.5468 -0.487208C11.3655 -0.495707 11.1832 -0.5 11 -0.5L11 1.5C11.152 1.5 11.3031 1.50356 11.4532 1.5106L11.5468 -0.487208ZM10.5 0.5L10.5 0.511695L12.5 0.511695L12.5 0.499999L10.5 0.5ZM36 -0.500002L11.5 -0.5L11.5 1.5L36 1.5L36 -0.500002ZM36.5 -0.500002L36 -0.500002L36 1.5L36.5 1.5L36.5 -0.500002ZM37.5 0.511694L37.5 0.499998L35.5 0.499998L35.5 0.511694L37.5 0.511694ZM36.4532 1.5106C41.489 1.74668 45.5 5.90522 45.5 11L47.5 11C47.5 4.83202 42.6446 -0.20134 36.5468 -0.487209L36.4532 1.5106ZM45.5 11C45.5 16.0948 41.489 20.2533 36.4532 20.4894L36.5468 22.4872C42.6446 22.2013 47.5 17.168 47.5 11L45.5 11ZM37.5 21.5L37.5 21.4883L35.5 21.4883L35.5 21.5L37.5 21.5ZM36 22.5L36.5 22.5L36.5 20.5L36 20.5L36 22.5ZM11.5 22.5L36 22.5L36 20.5L11.5 20.5L11.5 22.5ZM10.5 21.4883L10.5 21.5L12.5 21.5L12.5 21.4883L10.5 21.4883ZM11 22.5C11.1832 22.5 11.3655 22.4957 11.5468 22.4872L11.4532 20.4894C11.3031 20.4964 11.152 20.5 11 20.5L11 22.5ZM-0.5 11C-0.5 17.3513 4.64873 22.5 11 22.5L11 20.5C5.75329 20.5 1.5 16.2467 1.5 11L-0.5 11ZM11 -0.5C4.64872 -0.5 -0.500001 4.64873 -0.5 11L1.5 11C1.5 5.75329 5.75329 1.5 11 1.5L11 -0.5Z" fill="white" fill-opacity="0.5" mask="url(#path-1-inside-1)"/>
<path d="M37.8536 10.8536C38.0488 10.6583 38.0488 10.3417 37.8536 10.1464L34.6716 6.96447C34.4763 6.7692 34.1597 6.7692 33.9645 6.96447C33.7692 7.15973 33.7692 7.47631 33.9645 7.67157L36.7929 10.5L33.9645 13.3284C33.7692 13.5237 33.7692 13.8403 33.9645 14.0355C34.1597 14.2308 34.4763 14.2308 34.6716 14.0355L37.8536 10.8536ZM10.5 11L37.5 11L37.5 10L10.5 10L10.5 11Z" fill="#FCFCFC"/>
</svg>
